<!-- icon666.com - MILLIONS vector ICONS FREE --><svg viewBox="0 0 24 24" xmlns="http://www.w3.org/2000/svg"><g id="essentials/basics/menu" fill="none" fill-rule="evenodd"><path id="Fill-1" d="m20.4999898 7.0034h-17.99999998c-.276 0-.5-.224-.5-.5s.224-.5.5-.5h17.99999998c.276 0 .5.224.5.5s-.224.5-.5.5m0 5h-17.99999998c-.276 0-.5-.224-.5-.5s.224-.5.5-.5h17.99999998c.276 0 .5.224.5.5s-.224.5-.5.5m0 5h-17.99999998c-.276 0-.5-.224-.5-.5s.224-.5.5-.5h17.99999998c.276 0 .5.224.5.5s-.224.5-.5.5" fill="rgb(0,0,0)" style="fill: rgb(240, 240, 240);"></path></g></svg>